REM DIRINDEX 1\2\4,1\2\5,1\2\6,1\3\7,1\3\8,1\3\9,1\3\10
REM DIRNAME cjc057,folder01,folder02,folder03,folder04,folder05,folder06,folder07,folder08,folder09
TITLE ""
FILE "a_118.mp3" MP3
  TRACK 01 AUDIO
    TITLE "0:"
    INDEX 01 00:00:00
  TRACK 02 AUDIO
    TITLE "4:cjc057_01956"
    INDEX 01 00:00:15
  TRACK 03 AUDIO
    TITLE "0:"
    INDEX 01 00:01:52
  TRACK 04 AUDIO
    TITLE "5:cjc057_01957"
    INDEX 01 00:02:08
  TRACK 05 AUDIO
    TITLE "0:"
    INDEX 01 00:05:28
  TRACK 06 AUDIO
    TITLE "4:cjc057_01958"
    INDEX 01 00:06:35
  TRACK 07 AUDIO
    TITLE "0:"
    INDEX 01 00:07:60
  TRACK 08 AUDIO
    TITLE "5:cjc057_01959"
    INDEX 01 00:08:17
  TRACK 09 AUDIO
    TITLE "0:"
    INDEX 01 00:09:38
  TRACK 10 AUDIO
    TITLE "4:cjc057_01960"
    INDEX 01 00:10:47
  TRACK 11 AUDIO
    TITLE "0:"
    INDEX 01 00:12:11
  TRACK 12 AUDIO
    TITLE "5:cjc057_01961"
    INDEX 01 00:12:44
  TRACK 13 AUDIO
    TITLE "0:"
    INDEX 01 00:14:13
  TRACK 14 AUDIO
    TITLE "4:cjc057_01962"
    INDEX 01 00:15:21
  TRACK 15 AUDIO
    TITLE "0:"
    INDEX 01 00:16:34
  TRACK 16 AUDIO
    TITLE "5:cjc057_01963"
    INDEX 01 00:16:69
  TRACK 17 AUDIO
    TITLE "0:"
    INDEX 01 00:19:62
  TRACK 18 AUDIO
    TITLE "4:cjc057_01964"
    INDEX 01 00:20:69
  TRACK 19 AUDIO
    TITLE "0:"
    INDEX 01 00:22:34
  TRACK 20 AUDIO
    TITLE "5:cjc057_01965"
    INDEX 01 00:22:68
  TRACK 21 AUDIO
    TITLE "0:"
    INDEX 01 00:25:01
  TRACK 22 AUDIO
    TITLE "4:cjc057_01966"
    INDEX 01 00:26:09
  TRACK 23 AUDIO
    TITLE "0:"
    INDEX 01 00:27:26
  TRACK 24 AUDIO
    TITLE "5:cjc057_01967"
    INDEX 01 00:27:61
  TRACK 25 AUDIO
    TITLE "0:"
    INDEX 01 00:29:07
  TRACK 26 AUDIO
    TITLE "4:cjc057_01968"
    INDEX 01 00:30:16
  TRACK 27 AUDIO
    TITLE "0:"
    INDEX 01 00:31:43
  TRACK 28 AUDIO
    TITLE "5:cjc057_01969"
    INDEX 01 00:32:01
  TRACK 29 AUDIO
    TITLE "0:"
    INDEX 01 00:35:19
  TRACK 30 AUDIO
    TITLE "4:cjc057_01970"
    INDEX 01 00:36:29
  TRACK 31 AUDIO
    TITLE "0:"
    INDEX 01 00:37:52
  TRACK 32 AUDIO
    TITLE "5:cjc057_01971"
    INDEX 01 00:38:10
  TRACK 33 AUDIO
    TITLE "0:"
    INDEX 01 00:40:13
  TRACK 34 AUDIO
    TITLE "4:cjc057_01972"
    INDEX 01 00:41:18
  TRACK 35 AUDIO
    TITLE "0:"
    INDEX 01 00:42:41
  TRACK 36 AUDIO
    TITLE "5:cjc057_01973"
    INDEX 01 00:42:72
  TRACK 37 AUDIO
    TITLE "0:"
    INDEX 01 00:45:00
  TRACK 38 AUDIO
    TITLE "4:cjc057_01974"
    INDEX 01 00:46:07
  TRACK 39 AUDIO
    TITLE "0:"
    INDEX 01 00:47:36
  TRACK 40 AUDIO
    TITLE "5:cjc057_01975"
    INDEX 01 00:47:72
  TRACK 41 AUDIO
    TITLE "0:"
    INDEX 01 00:49:69
  TRACK 42 AUDIO
    TITLE "4:cjc057_01976"
    INDEX 01 00:51:01
  TRACK 43 AUDIO
    TITLE "0:"
    INDEX 01 00:52:43
  TRACK 44 AUDIO
    TITLE "5:cjc057_01977"
    INDEX 01 00:53:00
  TRACK 45 AUDIO
    TITLE "0:"
    INDEX 01 00:55:46
  TRACK 46 AUDIO
    TITLE "4:cjc057_01978"
    INDEX 01 00:56:55
  TRACK 47 AUDIO
    TITLE "0:"
    INDEX 01 00:58:11
  TRACK 48 AUDIO
    TITLE "5:cjc057_01979"
    INDEX 01 00:58:46
  TRACK 49 AUDIO
    TITLE "0:"
    INDEX 01 01:02:10
  TRACK 50 AUDIO
    TITLE "4:cjc057_01980"
    INDEX 01 01:03:20
  TRACK 51 AUDIO
    TITLE "0:"
    INDEX 01 01:04:35
  TRACK 52 AUDIO
    TITLE "5:cjc057_01981"
    INDEX 01 01:04:72
  TRACK 53 AUDIO
    TITLE "0:"
    INDEX 01 01:07:08
  TRACK 54 AUDIO
    TITLE "4:cjc057_01982"
    INDEX 01 01:08:13
  TRACK 55 AUDIO
    TITLE "0:"
    INDEX 01 01:09:34
  TRACK 56 AUDIO
    TITLE "5:cjc057_01983"
    INDEX 01 01:09:69
  TRACK 57 AUDIO
    TITLE "0:"
    INDEX 01 01:12:26
  TRACK 58 AUDIO
    TITLE "4:cjc057_01984"
    INDEX 01 01:13:36
  TRACK 59 AUDIO
    TITLE "0:"
    INDEX 01 01:15:25
  TRACK 60 AUDIO
    TITLE "5:cjc057_01985"
    INDEX 01 01:15:60
  TRACK 61 AUDIO
    TITLE "0:"
    INDEX 01 01:18:74
  TRACK 62 AUDIO
    TITLE "4:cjc057_01986"
    INDEX 01 01:20:06
  TRACK 63 AUDIO
    TITLE "0:"
    INDEX 01 01:21:53
  TRACK 64 AUDIO
    TITLE "5:cjc057_01987"
    INDEX 01 01:22:13
  TRACK 65 AUDIO
    TITLE "0:"
    INDEX 01 01:24:32
  TRACK 66 AUDIO
    TITLE "4:cjc057_01988"
    INDEX 01 01:25:37
  TRACK 67 AUDIO
    TITLE "0:"
    INDEX 01 01:26:68
  TRACK 68 AUDIO
    TITLE "5:cjc057_01989"
    INDEX 01 01:27:28
  TRACK 69 AUDIO
    TITLE "0:"
    INDEX 01 01:30:38
  TRACK 70 AUDIO
    TITLE "4:cjc057_01990"
    INDEX 01 01:31:47
  TRACK 71 AUDIO
    TITLE "0:"
    INDEX 01 01:33:05
  TRACK 72 AUDIO
    TITLE "5:cjc057_01991"
    INDEX 01 01:33:38
  TRACK 73 AUDIO
    TITLE "0:"
    INDEX 01 01:36:62
  TRACK 74 AUDIO
    TITLE "4:cjc057_01992"
    INDEX 01 01:37:71
  TRACK 75 AUDIO
    TITLE "0:"
    INDEX 01 01:39:41
  TRACK 76 AUDIO
    TITLE "5:cjc057_01993"
    INDEX 01 01:40:01
  TRACK 77 AUDIO
    TITLE "0:"
    INDEX 01 01:43:23
  TRACK 78 AUDIO
    TITLE "4:cjc057_01994"
    INDEX 01 01:44:32
  TRACK 79 AUDIO
    TITLE "0:"
    INDEX 01 01:45:65
  TRACK 80 AUDIO
    TITLE "5:cjc057_01995"
    INDEX 01 01:46:21
  TRACK 81 AUDIO
    TITLE "0:"
    INDEX 01 01:50:07
  TRACK 82 AUDIO
    TITLE "4:cjc057_01996"
    INDEX 01 01:51:11
  TRACK 83 AUDIO
    TITLE "0:"
    INDEX 01 01:52:55
  TRACK 84 AUDIO
    TITLE "5:cjc057_01997"
    INDEX 01 01:53:14
  TRACK 85 AUDIO
    TITLE "0:"
    INDEX 01 01:56:37
  TRACK 86 AUDIO
    TITLE "4:cjc057_01998"
    INDEX 01 01:57:47
  TRACK 87 AUDIO
    TITLE "0:"
    INDEX 01 01:59:14
  TRACK 88 AUDIO
    TITLE "5:cjc057_01999"
    INDEX 01 01:59:48
  TRACK 89 AUDIO
    TITLE "0:"
    INDEX 01 02:03:16
  TRACK 90 AUDIO
    TITLE "4:cjc057_02000"
    INDEX 01 02:04:27
  TRACK 91 AUDIO
    TITLE "0:"
    INDEX 01 02:05:40
  TRACK 92 AUDIO
    TITLE "5:cjc057_02001"
    INDEX 01 02:05:74
  TRACK 93 AUDIO
    TITLE "0:"
    INDEX 01 02:08:70
  TRACK 94 AUDIO
    TITLE "4:cjc057_02002"
    INDEX 01 02:10:02
  TRACK 95 AUDIO
    TITLE "0:"
    INDEX 01 02:11:19
  TRACK 96 AUDIO
    TITLE "5:cjc057_02003"
    INDEX 01 02:11:53
  TRACK 97 AUDIO
    TITLE "0:"
    INDEX 01 02:12:48
  TRACK 98 AUDIO
    TITLE "4:cjc057_02004"
    INDEX 01 02:13:56
  TRACK 99 AUDIO
    TITLE "0:"
    INDEX 01 02:15:13
  TRACK 100 AUDIO
    TITLE "5:cjc057_02005"
    INDEX 01 02:15:45
  TRACK 101 AUDIO
    TITLE "0:"
    INDEX 01 02:16:56
  TRACK 102 AUDIO
    TITLE "4:cjc057_02006"
    INDEX 01 02:17:65
  TRACK 103 AUDIO
    TITLE "0:"
    INDEX 01 02:19:37
  TRACK 104 AUDIO
    TITLE "5:cjc057_02007"
    INDEX 01 02:19:70
  TRACK 105 AUDIO
    TITLE "0:"
    INDEX 01 02:21:65
  TRACK 106 AUDIO
    TITLE "4:cjc057_02008"
    INDEX 01 02:22:74
  TRACK 107 AUDIO
    TITLE "0:"
    INDEX 01 02:24:34
  TRACK 108 AUDIO
    TITLE "5:cjc057_02009"
    INDEX 01 02:24:69
  TRACK 109 AUDIO
    TITLE "0:"
    INDEX 01 02:28:43
  TRACK 110 AUDIO
    TITLE "4:cjc057_02010"
    INDEX 01 02:29:51
  TRACK 111 AUDIO
    TITLE "0:"
    INDEX 01 02:30:70
  TRACK 112 AUDIO
    TITLE "5:cjc057_02011"
    INDEX 01 02:31:28
  TRACK 113 AUDIO
    TITLE "0:"
    INDEX 01 02:34:64
